<?xml version="1.0" encoding="UTF-8"?>
<!DOCTYPE svg PUBLIC "-//W3C//DTD SVG 1.1//EN" "http://www.w3.org/Graphics/SVG/1.1/DTD/svg11.dtd">
<svg xmlns="http://www.w3.org/2000/svg" version="1.1" width="512px" height="512px" style="shape-rendering:geometricPrecision; text-rendering:geometricPrecision; image-rendering:optimizeQuality; fill-rule:evenodd; clip-rule:evenodd" xmlns:xlink="http://www.w3.org/1999/xlink">
<g><path style="opacity:0.999" fill="#00e083" d="M 79.5,55.5 C 122.168,55.3333 164.835,55.5 207.5,56C 220,59.1667 227.833,67 231,79.5C 231.667,122.167 231.667,164.833 231,207.5C 227.833,220 220,227.833 207.5,231C 164.833,231.667 122.167,231.667 79.5,231C 67,227.833 59.1667,220 56,207.5C 55.3333,164.833 55.3333,122.167 56,79.5C 59.349,66.9853 67.1824,58.9853 79.5,55.5 Z"/></g>
<g><path style="opacity:0.999" fill="#00e083" d="M 303.5,55.5 C 346.168,55.3333 388.835,55.5 431.5,56C 444,59.1667 451.833,67 455,79.5C 455.667,122.167 455.667,164.833 455,207.5C 451.833,220 444,227.833 431.5,231C 388.833,231.667 346.167,231.667 303.5,231C 291,227.833 283.167,220 280,207.5C 279.333,164.833 279.333,122.167 280,79.5C 283.349,66.9853 291.182,58.9853 303.5,55.5 Z"/></g>
<g><path style="opacity:0.999" fill="#00e083" d="M 79.5,279.5 C 122.168,279.333 164.835,279.5 207.5,280C 220,283.167 227.833,291 231,303.5C 231.667,346.167 231.667,388.833 231,431.5C 227.833,444 220,451.833 207.5,455C 164.833,455.667 122.167,455.667 79.5,455C 67,451.833 59.1667,444 56,431.5C 55.3333,388.833 55.3333,346.167 56,303.5C 59.349,290.985 67.1824,282.985 79.5,279.5 Z"/></g>
<g><path style="opacity:0.993" fill="#5d5d5d" d="M 353.5,279.5 C 399.95,275.85 432.45,295.183 451,337.5C 463.241,379.773 452.074,414.273 417.5,441C 390.493,457.233 362.159,459.9 332.5,449C 303.419,435.577 285.919,413.077 280,381.5C 275.756,337.474 293.256,305.64 332.5,286C 339.472,283.347 346.472,281.18 353.5,279.5 Z"/></g>
</svg>
